<svg id="Layer_1" height="512" viewBox="0 0 512 512" width="512" xmlns="http://www.w3.org/2000/svg" data-name="Layer 1"><path d="m254.045 238.1a75.942 75.942 0 1 0 -75.945-75.938 76.028 76.028 0 0 0 75.945 75.938zm0-139.884a63.942 63.942 0 1 1 -63.945 63.946 64.014 64.014 0 0 1 63.945-63.942z"/><path d="m235.136 196.489a39.1 39.1 0 0 0 37.819 0 40.841 40.841 0 0 0 15.808 3.207 41.391 41.391 0 0 0 13.6-2.308 6 6 0 0 0 3.962-6.567 41.18 41.18 0 0 0 -13.292-24.565 39.173 39.173 0 0 0 -20.727-38.756 41.19 41.19 0 0 0 -13.354-22.392 6 6 0 0 0 -7.669-.139 41.021 41.021 0 0 0 -14.147 21.843 39.188 39.188 0 0 0 -22.075 39.447 41.169 41.169 0 0 0 -13.292 24.565 6 6 0 0 0 3.962 6.567 41.365 41.365 0 0 0 13.6 2.308 40.846 40.846 0 0 0 15.805-3.21zm53.955-16.789a29.2 29.2 0 0 1 4.063 7.664 29.029 29.029 0 0 1 -9.064-.051 39.4 39.4 0 0 0 5.001-7.613zm-16.309-37.215a27.137 27.137 0 0 1 8.244 16.31 40.831 40.831 0 0 0 -12.716-2.911 40.863 40.863 0 0 0 4.472-13.403zm6.849 28.911a27.3 27.3 0 0 1 -7.468 11.039 29.116 29.116 0 0 1 -10.882-14.307 28.98 28.98 0 0 1 18.35 3.264zm-24.755-53.296a29.142 29.142 0 0 1 3.234 5.082 39.551 39.551 0 0 0 -4.065-.21c-.881 0-1.753.04-2.62.1a29.023 29.023 0 0 1 3.451-4.972zm-7.019 17.591a27.036 27.036 0 0 1 13.385.255c0 .117.015.234.015.352a29.016 29.016 0 0 1 -7.056 19.023 29.138 29.138 0 0 1 -6.381-18.2c0-.48.014-.957.037-1.432zm6.188 44.843a41.074 41.074 0 0 0 6.63 8.013 27.177 27.177 0 0 1 -13.259 0 41.033 41.033 0 0 0 6.629-8.015zm-7.235-12.408a29.126 29.126 0 0 1 -10.882 14.307 27.283 27.283 0 0 1 -7.468-11.04 28.97 28.97 0 0 1 18.35-3.269zm-10.723-26.357a41.115 41.115 0 0 0 4.251 14.079 40.826 40.826 0 0 0 -13.273 2.945 27.157 27.157 0 0 1 9.022-17.026zm-17.087 37.931a39.28 39.28 0 0 0 5 7.613 28.981 28.981 0 0 1 -9.066.051 29.169 29.169 0 0 1 4.066-7.664z"/><path d="m314.818 280.736h-120.557a6 6 0 1 0 0 12h120.557a6 6 0 0 0 0-12z"/><path d="m314.818 251.936h-120.557a6 6 0 0 0 0 12h120.557a6 6 0 1 0 0-12z"/><path d="m134.813 330.176h224.836a6 6 0 0 0 0-12h-224.836a6 6 0 0 0 0 12z"/><path d="m134.813 359.456h224.836a6 6 0 0 0 0-12h-224.836a6 6 0 0 0 0 12z"/><path d="m134.813 388.736h224.836a6 6 0 0 0 0-12h-224.836a6 6 0 0 0 0 12z"/><path d="m478.329 20.278h-26.981a28.337 28.337 0 0 0 -21.842-10.278h-347.681a28.338 28.338 0 0 0 -21.844 10.28h-26.31a18.109 18.109 0 0 0 0 36.218h26.312a28.337 28.337 0 0 0 21.842 10.276h12.564v124.977a6 6 0 0 0 1.611 4.088l5.554 5.964-7.1 5.863a6 6 0 0 0 -2.175 4.382l-3.538 86.422a6 6 0 0 0 6 6.245h9.859l-14.826 21.794a6.006 6.006 0 0 0 -1.038 3.375v79.952h-4.013a46.085 46.085 0 0 0 -45.984 46.082c0 7.37 6.367 10.881 11.016 13.445a30.059 30.059 0 0 1 4.522 2.834 33.807 33.807 0 0 1 -1.2 3.18c-1.573 3.8-4.2 10.157.7 14.627a45.8 45.8 0 0 0 30.943 11.996h.18l301-1.191a38.807 38.807 0 0 0 38.723-38.8v-65.649a29.2 29.2 0 0 0 -6.781-18.69l-15.019-17.97 14.75-17.138a29.132 29.132 0 0 0 7.05-19v-127.8a6.011 6.011 0 0 0 -.652-2.721l-9.018-17.722 8.586-12.273a6 6 0 0 0 1.084-3.439v-14.59a6 6 0 0 0 -1.23-3.64l-7.872-10.314 7.872-10.315a6 6 0 0 0 1.23-3.64v-50.334h4.883a28.339 28.339 0 0 0 21.842-10.274h26.981a18.109 18.109 0 0 0 0-36.218zm-444.658 24.222a6.109 6.109 0 0 1 0-12.218h20.436a28.218 28.218 0 0 0 0 12.216zm51.183 445.5h-.134a33.82 33.82 0 0 1 -21.481-7.673c.262-.745.642-1.663.93-2.361 1.555-3.755 3.49-8.429 1.139-12.886-2.114-4.01-6.175-6.249-9.758-8.225-1.576-.869-4.165-2.3-4.81-3.15a34.071 34.071 0 0 1 33.983-33.869h109.114a5.678 5.678 0 0 1 3.527 1.234l8.717 6.948a6 6 0 0 0 8.082-.551l5.6-5.875a5.689 5.689 0 0 1 4.1-1.756h144.4a58.721 58.721 0 0 0 -9.5 23.741c-2.986 18.585 3.75 33.777 9.978 43.3zm327.769-374.916-9.42 12.343a6 6 0 0 0 0 7.28l9.42 12.343v10.67l-9.567 13.68a6 6 0 0 0 -.431 6.159l10 19.651v126.353a17.121 17.121 0 0 1 -4.144 11.169l-18.07 20.995a6 6 0 0 0 -.057 7.761l18.282 21.877a17.182 17.182 0 0 1 3.989 11v65.645a26.8 26.8 0 0 1 -26.747 26.8 4.536 4.536 0 0 1 -3.565-1.688c-5.253-6.554-14.649-21.24-11.693-39.64a48.225 48.225 0 0 1 12.711-25.3 7.469 7.469 0 0 0 1.945-6.964 7.184 7.184 0 0 0 -6.955-5.376h-154.454a17.67 17.67 0 0 0 -12.787 5.475l-1.813 1.9-4.424-3.526a17.657 17.657 0 0 0 -11-3.85h-93.1v-78.11l20.034-29.455a6.245 6.245 0 0 0 .96-5.123 6 6 0 0 0 -5.8-4.438h-14.951l3.168-77.5 9.848-8.13a6.2 6.2 0 0 0 1.643-2 6.016 6.016 0 0 0 -.972-6.792l-8.284-8.9v-122.619h306.234zm16.883-60.31h-347.681a16.387 16.387 0 0 1 0-32.774h347.681a16.387 16.387 0 0 1 0 32.774zm48.823-10.274h-21.106a28.186 28.186 0 0 0 0-12.218h21.106a6.109 6.109 0 0 1 0 12.218z"/></svg>